<svg width="32" height="17" viewBox="0 0 32 17" fill="none" xmlns="http://www.w3.org/2000/svg">
<path d="M31 15.499L14 15.499" stroke="white" stroke-opacity="0.6" stroke-width="2" stroke-linecap="round"/>
<path d="M31 9.49902C31.5523 9.49902 32 9.05131 32 8.49902C32 7.94674 31.5523 7.49902 31 7.49902L31 9.49902ZM1 8.49902L0.292893 7.79191C-0.0976308 8.18244 -0.0976308 8.8156 0.292893 9.20613L1 8.49902ZM7.79289 16.7061C8.18342 17.0967 8.81658 17.0967 9.20711 16.7061C9.59763 16.3156 9.59763 15.6824 9.20711 15.2919L7.79289 16.7061ZM9.20711 1.70613C9.59763 1.3156 9.59763 0.682439 9.20711 0.291915C8.81658 -0.09861 8.18342 -0.09861 7.79289 0.291915L9.20711 1.70613ZM31 7.49902L1 7.49902L1 9.49902L31 9.49902L31 7.49902ZM0.292893 9.20613L7.79289 16.7061L9.20711 15.2919L1.70711 7.79191L0.292893 9.20613ZM1.70711 9.20613L9.20711 1.70613L7.79289 0.291915L0.292893 7.79191L1.70711 9.20613Z" fill="white"/>
<path d="M31 1.49902L14 1.49902" stroke="white" stroke-opacity="0.6" stroke-width="2" stroke-linecap="round"/>
</svg>
