<svg width="32" height="17" viewBox="0 0 32 17" fill="none" xmlns="http://www.w3.org/2000/svg">
<path d="M1 1.5H18" stroke="white" stroke-opacity="0.6" stroke-width="2" stroke-linecap="round"/>
<path d="M1 7.5C0.447715 7.5 0 7.94772 0 8.5C0 9.05229 0.447715 9.5 1 9.5V7.5ZM31 8.5L31.7071 9.20711C32.0976 8.81658 32.0976 8.18342 31.7071 7.79289L31 8.5ZM24.2071 0.292893C23.8166 -0.0976311 23.1834 -0.0976311 22.7929 0.292893C22.4024 0.683417 22.4024 1.31658 22.7929 1.70711L24.2071 0.292893ZM22.7929 15.2929C22.4024 15.6834 22.4024 16.3166 22.7929 16.7071C23.1834 17.0976 23.8166 17.0976 24.2071 16.7071L22.7929 15.2929ZM1 9.5H31V7.5H1V9.5ZM31.7071 7.79289L24.2071 0.292893L22.7929 1.70711L30.2929 9.20711L31.7071 7.79289ZM30.2929 7.79289L22.7929 15.2929L24.2071 16.7071L31.7071 9.20711L30.2929 7.79289Z" fill="white"/>
<path d="M1 15.5H18" stroke="white" stroke-opacity="0.6" stroke-width="2" stroke-linecap="round"/>
</svg>
