<svg width="22" height="20" viewBox="0 0 22 20" fill="none" xmlns="http://www.w3.org/2000/svg">
<path d="M16.8333 8.91691V0.250244H5.16667V4.58358H0.5V19.7502H9.83333V15.4169H12.1667V19.7502H21.5V8.91691H16.8333ZM5.16667 17.5836H2.83333V15.4169H5.16667V17.5836ZM5.16667 13.2502H2.83333V11.0836H5.16667V13.2502ZM5.16667 8.91691H2.83333V6.75025H5.16667V8.91691ZM9.83333 13.2502H7.5V11.0836H9.83333V13.2502ZM9.83333 8.91691H7.5V6.75025H9.83333V8.91691ZM9.83333 4.58358H7.5V2.41691H9.83333V4.58358ZM14.5 13.2502H12.1667V11.0836H14.5V13.2502ZM14.5 8.91691H12.1667V6.75025H14.5V8.91691ZM14.5 4.58358H12.1667V2.41691H14.5V4.58358ZM19.1667 17.5836H16.8333V15.4169H19.1667V17.5836ZM19.1667 13.2502H16.8333V11.0836H19.1667V13.2502Z" fill="white"/>
</svg>
