<svg width="130" height="130" viewBox="0 0 130 130" fill="none" xmlns="http://www.w3.org/2000/svg">
<path d="M122.824 1.4705e-07H7.16968C3.20953 0.00238053 -0.00079331 3.21429 1.4705e-07 7.17603V122.83C0.00238053 126.79 3.21429 130.001 7.17603 130H69.4434V79.7266H52.5586V60.0488H69.4434V45.5674C69.4434 28.7739 79.6956 19.6333 94.6761 19.6333C101.851 19.6333 108.017 20.1681 109.814 20.4069V37.959H99.4844C91.334 37.959 89.7559 41.8318 89.7559 47.5162V60.0488H109.243L106.704 79.7266H89.7559V130H122.824C126.786 130.001 129.999 126.79 130 122.827C130 122.826 130 122.826 130 122.824V7.16968C129.998 3.20953 126.786 -0.00079331 122.824 1.4705e-07Z" fill="#53D378"/>
</svg>
