<svg width="129" height="130" viewBox="0 0 129 130" fill="none" xmlns="http://www.w3.org/2000/svg">
<path d="M125.554 0H3.35737C1.50292 0 0 1.50292 0 3.35737V126.643C0 128.497 1.50292 130 3.35737 130H43.9795V129.97C45.8129 129.949 47.2176 128.923 47.2822 127.186C47.4488 122.672 47.3311 118.148 47.3311 113.784C44.0594 113.936 40.9359 114.35 37.8476 114.172C31.0363 113.779 25.8023 110.873 23.0878 104.203C21.4798 100.252 19.0569 96.8726 15.2835 94.6174C14.5788 94.1958 13.9627 93.5752 13.4235 92.9449C12.7189 92.1228 12.8507 91.2783 13.9641 91.0527C15.0873 90.8243 16.3145 90.6648 17.4222 90.8719C21.7726 91.6885 24.7809 94.4169 27.0837 98.046C31.6371 105.226 38.6459 107.423 46.5313 104.108C46.9709 103.923 47.5298 103.475 47.6126 103.066C48.2484 99.8876 49.4362 96.9898 51.8298 94.4492C49.1686 93.9562 46.7036 93.5935 44.2862 93.033C37.3249 91.4223 31.0713 88.5245 26.4983 82.7691C22.7672 78.0743 21.061 72.5785 20.2767 66.7293C19.0484 57.5678 20.1479 48.992 26.4395 41.6707C26.7573 41.3009 26.9297 40.5432 26.7882 40.0825C25.2125 34.9338 25.4533 29.8284 27.015 24.7372C27.8346 22.0634 28.0628 21.9302 30.7912 22.3028C30.9581 22.3252 31.1203 22.3671 31.2858 22.3953C36.7551 23.3002 41.4627 25.9486 46.1001 28.7919C46.7235 29.1743 47.673 29.4123 48.358 29.2457C59.4341 26.558 70.4892 26.5692 81.5639 29.2556C82.2068 29.411 83.0655 29.1897 83.6802 28.8677C86.2013 27.5497 88.6146 26.0174 91.168 24.7679C94.1386 23.3155 97.2676 22.2229 100.636 22.2831C101.226 22.2944 102.138 22.8573 102.335 23.3785C104.362 28.7484 104.789 34.2207 103.174 39.8092C103.002 40.4058 103.258 41.2561 103.579 41.8442C105.173 44.7688 107.398 47.4678 108.407 50.57C111.481 60.0255 110.361 69.3888 106.176 78.2757C102.341 86.4217 95.2285 90.5494 86.8094 92.6785C83.966 93.3971 81.0529 93.834 77.9855 94.4364C82.0052 98.6355 82.6355 103.76 82.5641 109.127C82.4899 114.664 82.5096 120.202 82.5066 125.74C82.5052 128.422 83.6761 129.904 85.7196 129.991C85.7182 129.999 128.911 129.999 128.911 129.999V3.35737C128.91 1.50292 127.407 0 125.554 0Z" fill="#53D378"/>
</svg>
