<svg width="130" height="130" viewBox="0 0 130 130" fill="none" xmlns="http://www.w3.org/2000/svg">
<path d="M120.624 0H9.37569C4.19739 0 0 4.19739 0 9.37569V120.624C0 125.803 4.19739 130 9.37569 130H120.624C125.803 130 130 125.803 130 120.624V9.37569C130 4.19739 125.803 0 120.624 0V0ZM94.6783 50.6801C94.707 51.3198 94.7209 51.9625 94.7209 52.6082C94.7209 72.3226 79.7147 95.0562 52.272 95.0571H52.2729H52.272C43.8464 95.0571 36.0061 92.5875 29.4035 88.3554C30.5709 88.4933 31.7591 88.5617 32.9622 88.5617C39.9525 88.5617 46.3855 86.1774 51.4924 82.1754C44.9612 82.0544 39.4547 77.7409 37.5543 71.8128C38.4638 71.9874 39.3991 72.0826 40.3582 72.0826C41.72 72.0826 43.0391 71.8991 44.2928 71.5569C37.466 70.1902 32.3235 64.157 32.3235 56.9325C32.3235 56.8651 32.3235 56.8046 32.3254 56.7421C34.3359 57.8599 36.6349 58.5323 39.0827 58.6077C35.0768 55.9348 32.4435 51.3654 32.4435 46.1891C32.4435 43.4557 33.1824 40.8948 34.4638 38.69C41.8211 47.7175 52.8165 53.6546 65.2162 54.2784C64.9603 53.1854 64.8284 52.0468 64.8284 50.8765C64.8284 42.6404 71.5103 35.9585 79.7494 35.9585C84.041 35.9585 87.917 37.7725 90.6396 40.6726C94.0385 40.0021 97.2302 38.7604 100.113 37.0515C98.9977 40.5338 96.6331 43.4557 93.5526 45.3034C96.5707 44.9424 99.4469 44.142 102.12 42.9538C100.123 45.9461 97.5912 48.5744 94.6783 50.6801V50.6801Z" fill="#53D378"/>
</svg>
