<svg width="188" height="132" viewBox="0 0 188 132" fill="none" xmlns="http://www.w3.org/2000/svg">
<path d="M183.789 21.1353C181.628 13.1027 175.295 6.77066 167.264 4.60773C152.591 0.59314 93.9 0.59314 93.9 0.59314C93.9 0.59314 35.2113 0.59314 20.5388 4.45552C12.6619 6.61616 6.17422 13.1038 4.01358 21.1353C0.152344 35.8066 0.152344 66.233 0.152344 66.233C0.152344 66.233 0.152344 96.8128 4.01358 111.331C6.17651 119.362 12.5074 125.694 20.54 127.857C35.3658 131.873 93.9023 131.873 93.9023 131.873C93.9023 131.873 152.591 131.873 167.264 128.01C175.296 125.849 181.628 119.517 183.791 111.485C187.651 96.8128 187.651 66.3875 187.651 66.3875C187.651 66.3875 187.806 35.8066 183.789 21.1353ZM75.2141 94.342V38.124L124.019 66.233L75.2141 94.342Z" fill="#53D378"/>
</svg>
