<svg width="114" height="106" viewBox="0 0 114 106" fill="none" xmlns="http://www.w3.org/2000/svg">
<path d="M88.4175 47.1124V0.382202H25.5115V23.7473H0.349121V105.525H50.6739V82.16H63.2551V105.525H113.58V47.1124H88.4175ZM25.5115 93.8425H12.9303V82.16H25.5115V93.8425ZM25.5115 70.4774H12.9303V58.7949H25.5115V70.4774ZM25.5115 47.1124H12.9303V35.4298H25.5115V47.1124ZM50.6739 70.4774H38.0927V58.7949H50.6739V70.4774ZM50.6739 47.1124H38.0927V35.4298H50.6739V47.1124ZM50.6739 23.7473H38.0927V12.0647H50.6739V23.7473ZM75.8363 70.4774H63.2551V58.7949H75.8363V70.4774ZM75.8363 47.1124H63.2551V35.4298H75.8363V47.1124ZM75.8363 23.7473H63.2551V12.0647H75.8363V23.7473ZM100.999 93.8425H88.4175V82.16H100.999V93.8425ZM100.999 70.4774H88.4175V58.7949H100.999V70.4774Z" fill="white"/>
</svg>
