<svg width="135" height="135" viewBox="0 0 135 135" fill="none" xmlns="http://www.w3.org/2000/svg">
<path d="M59.1632 114.757C59.9705 116.263 61.1712 117.521 62.6374 118.399C64.1036 119.276 65.7804 119.74 67.4891 119.74C69.1979 119.74 70.8746 119.276 72.3408 118.399C73.807 117.521 75.0077 116.263 75.8151 114.757L104.112 61.9276C107.249 55.9227 108.87 49.2423 108.836 42.4678V41.3576C108.836 35.9265 107.766 30.5485 105.688 25.5307C103.609 20.513 100.563 15.9538 96.7225 12.1134C92.8821 8.27296 88.3228 5.22658 83.3051 3.14816C78.2874 1.06975 72.9094 0 67.4782 0C62.0471 0 56.6691 1.06975 51.6514 3.14816C46.6336 5.22658 42.0744 8.27296 38.234 12.1134C34.3936 15.9538 31.3472 20.513 29.2688 25.5307C27.1904 30.5485 26.1206 35.9265 26.1206 41.3576V42.446C26.1339 49.2332 27.8079 55.9142 30.9965 61.9058L59.1632 114.757ZM30.474 41.3576C30.474 36.4982 31.4312 31.6863 33.2908 27.1967C35.1504 22.7072 37.8762 18.6279 41.3123 15.1917C44.7485 11.7556 48.8278 9.02985 53.3173 7.17021C57.8069 5.31058 62.6188 4.35343 67.4782 4.35343C72.3377 4.35343 77.1496 5.31058 81.6391 7.17021C86.1287 9.02985 90.208 11.7556 93.6441 15.1917C97.0803 18.6279 99.806 22.7072 101.666 27.1967C103.525 31.6863 104.482 36.4982 104.482 41.3576V42.446C104.477 48.5192 102.982 54.4985 100.129 59.8597L71.984 112.71C71.5479 113.52 70.9007 114.196 70.1113 114.668C69.3218 115.139 68.4195 115.388 67.5 115.388C66.5805 115.388 65.6782 115.139 64.8887 114.668C64.0992 114.196 63.4521 113.52 63.016 112.71L34.8275 59.8815C31.9742 54.5202 30.4794 48.541 30.474 42.4678V41.3576Z" fill="#00A14B"/>
<path d="M67.4783 74.0084C73.936 74.0084 80.2487 72.0935 85.6181 68.5057C90.9874 64.918 95.1724 59.8187 97.6436 53.8525C100.115 47.8864 100.761 41.3214 99.5016 34.9878C98.2418 28.6542 95.1321 22.8364 90.5658 18.2701C85.9995 13.7038 80.1817 10.5941 73.8481 9.33425C67.5145 8.07442 60.9495 8.72101 54.9834 11.1923C49.0172 13.6635 43.9179 17.8485 40.3302 23.2178C36.7424 28.5872 34.8275 34.8999 34.8275 41.3576C34.8275 50.0172 38.2675 58.322 44.3907 64.4452C50.5139 70.5684 58.8187 74.0084 67.4783 74.0084ZM43.9697 25.6417C46.2252 27.6574 48.8595 29.2039 51.7188 30.1911C50.8568 33.1176 50.3381 36.1345 50.1734 39.1809H39.2898C39.653 34.3391 41.2654 29.6743 43.9697 25.6417ZM95.7756 39.1809H84.892C84.7341 36.1354 84.2228 33.1185 83.3683 30.1911C86.2241 29.2105 88.8525 27.6631 91.0956 25.6417C93.8081 29.6702 95.4213 34.3373 95.7756 39.1809ZM91.0956 57.0953C88.8525 55.074 86.2241 53.5266 83.3683 52.546C84.2245 49.6115 84.7358 46.5872 84.892 43.5344H95.7756C95.3991 48.3936 93.7554 53.0693 91.0086 57.0953H91.0956ZM65.3015 50.0645C62.1368 50.1393 58.9871 50.5257 55.8981 51.2182C55.1581 48.7155 54.6982 46.1385 54.5268 43.5344H65.4104L65.3015 50.0645ZM65.3015 54.4179V66.9341C62.0113 63.57 59.3434 59.6493 57.4218 55.3539C60.0157 54.8104 62.6525 54.4971 65.3015 54.4179ZM69.655 54.4179C72.2968 54.4971 74.9264 54.8103 77.5129 55.3539C75.5916 59.6571 72.9322 63.591 69.655 66.9776V54.4179ZM69.655 50.0645V43.5344H80.5386C80.3806 46.1615 79.9205 48.7617 79.1672 51.2835C76.0446 50.5633 72.8583 50.155 69.655 50.0645ZM80.5386 39.1809H69.655V32.6508C72.8196 32.5746 75.9692 32.1882 79.0584 31.4971C79.8455 33.993 80.3422 36.5713 80.5386 39.1809ZM69.655 28.2973V15.7377C72.9386 19.1072 75.6055 23.0267 77.5347 27.3178C74.9421 27.876 72.3053 28.2038 69.655 28.2973ZM65.3015 28.2973C62.6525 28.2181 60.0157 27.9049 57.4218 27.3613C59.344 23.0598 62.0116 19.132 65.3015 15.7594V28.2973ZM65.3015 32.6508V39.1809H54.418C54.5936 36.5542 55.0608 33.9552 55.8111 31.4318C58.9265 32.1505 62.1056 32.5588 65.3015 32.6508ZM50.0645 43.5344C50.2293 46.5808 50.7479 49.5977 51.61 52.5242C48.7506 53.5113 46.1164 55.0578 43.8609 57.0735C41.2028 53.028 39.6356 48.3641 39.3116 43.5344H50.0645ZM46.7124 60.5127C48.5917 58.7754 50.817 57.455 53.2425 56.6382C55.1618 61.1536 57.8418 65.3061 61.1658 68.9149C55.6072 67.6453 50.5662 64.7149 46.7124 60.5127ZM73.856 68.9149C77.1919 65.2946 79.8796 61.127 81.8011 56.5947C84.2266 57.4114 86.452 58.7318 88.3312 60.4692C84.4783 64.6922 79.4283 67.6387 73.856 68.9149ZM88.2877 22.2243C86.4145 23.9698 84.1872 25.2913 81.7575 26.0988C79.8316 21.5819 77.1442 17.4293 73.8125 13.8222C79.3795 15.0863 84.4289 18.0173 88.2877 22.2243ZM61.1223 13.8222C57.7962 17.4375 55.1161 21.5975 53.199 26.1206C50.7693 25.313 48.5421 23.9915 46.6689 22.2461C50.5197 18.0359 55.561 15.0977 61.1223 13.8222Z" fill="#00A14B"/>
<path d="M87.1775 100.847L86.851 105.201C117.064 107.399 130.603 113.755 130.603 117.543C130.603 123.006 106.659 130.603 67.4782 130.603C28.2973 130.603 4.35343 123.028 4.35343 117.543C4.35343 113.733 17.9362 107.377 48.1272 105.179L47.8225 100.826C39.8339 101.435 0 104.983 0 117.543C0 128.992 33.9568 134.956 67.4782 134.956C101 134.956 134.956 128.971 134.956 117.543C134.956 104.983 95.1661 101.435 87.1775 100.847Z" fill="#00A14B"/>
<path d="M108.858 93.6206H104.504V97.974H108.858V93.6206Z" fill="#00A14B"/>
<path d="M108.858 84.9137H104.504V89.2672H108.858V84.9137Z" fill="#00A14B"/>
<path d="M108.858 76.2069H104.504V80.5603H108.858V76.2069Z" fill="#00A14B"/>
<path d="M30.474 93.6206H26.1206V97.974H30.474V93.6206Z" fill="#00A14B"/>
<path d="M30.474 84.9137H26.1206V89.2672H30.474V84.9137Z" fill="#00A14B"/>
<path d="M30.474 76.2069H26.1206V80.5603H30.474V76.2069Z" fill="#00A14B"/>
</svg>
