<svg width="101" height="29" viewBox="0 0 101 29" fill="none" xmlns="http://www.w3.org/2000/svg">
<path d="M16.6017 11.725C15.1369 11.725 13.672 11.725 12.2071 11.686C11.4935 11.6469 11.2306 11.8814 11.2306 12.6631C11.2681 15.7897 11.193 18.8773 11.2681 22.004C11.3057 22.9811 10.9676 23.2156 10.1038 23.1765C8.93938 23.0984 7.73745 23.1765 6.53551 23.1374C5.93455 23.1374 5.70919 23.3719 5.70919 23.9973C5.74675 25.3261 5.67162 26.655 5.70919 27.9838C5.74675 28.6873 5.55894 29 4.80773 28.9609C3.45556 28.9218 2.10338 28.9218 0.788769 28.9609C0.225362 28.9609 -2.7311e-07 28.8046 -2.7311e-07 28.1792C0.0375602 26.7331 0.0375602 25.248 -2.7311e-07 23.8019C-0.0375607 23.0984 0.300483 22.942 0.90145 22.942C2.14094 22.9811 3.418 22.942 4.65749 22.942C5.25846 22.942 5.52138 22.7466 5.48382 22.0822C5.44626 20.8315 5.44626 19.5418 5.48382 18.2911C5.52138 17.5876 5.18334 17.3922 4.58237 17.4312C3.38044 17.4703 2.14094 17.3922 0.939011 17.4703C0.262923 17.5485 -2.7311e-07 17.314 -2.7311e-07 16.5714C0.0375602 15.1644 0.0375602 13.7965 -2.7311e-07 12.3895C-0.0375607 11.725 0.262923 11.5687 0.826329 11.6078C3.86872 11.6469 6.87356 11.6078 9.91595 11.6469C10.7423 11.6469 11.0052 11.3733 10.9676 10.5525C10.8925 9.38003 10.8925 8.20753 10.9676 7.0741C11.0052 6.21426 10.7798 5.86251 9.87839 5.9016C8.71402 5.97976 7.54965 5.9016 6.42283 5.94068C5.74675 5.97976 5.44626 5.74526 5.48382 5.00267C5.52138 3.67383 5.52138 2.34499 5.48382 1.01615C5.48382 0.312647 5.74675 0.0390625 6.42283 0.0390625C7.69989 0.0781461 8.97694 0.0781461 10.254 0.0390625C10.855 0.0390625 11.0803 0.273564 11.0803 0.898901C11.0428 2.30591 11.0803 3.67383 11.0803 5.08084C11.0803 5.66709 11.2681 5.86251 11.8315 5.86251C13.1837 5.82343 14.5359 5.9016 15.8505 5.82343C16.489 5.78435 16.6393 6.05793 16.6393 6.68327C16.6768 8.36386 16.489 10.0445 16.752 11.725C16.7144 11.686 16.6768 11.725 16.6017 11.725Z" fill="#fff"/>
<path d="M79.0271 19.5418C78.952 20.8315 79.1398 22.3949 78.9144 23.9191C78.7642 24.8962 78.2759 25.6388 77.4496 26.0296C75.8345 26.8113 74.1818 26.8504 72.5667 26.0296C72.5292 25.9905 72.4541 25.9515 72.4165 25.9124C71.8155 25.4825 71.2521 25.0135 71.4024 24.1536C71.4775 23.8019 73.2804 23.841 73.656 24.2318C74.0316 24.5835 74.4072 24.779 74.8955 24.8571C76.0223 24.9744 76.8862 24.0755 76.8486 22.942C76.8111 22.473 76.7359 22.3949 76.2852 22.6294C73.8438 23.9582 71.6277 22.7466 71.177 19.9326C70.9892 18.6038 71.0268 17.3531 71.6277 16.1415C72.4916 14.4609 74.595 13.8746 76.135 14.9299C76.473 15.1644 76.6233 15.3207 76.9613 14.8517C77.3369 14.3436 78.0881 14.5781 78.614 14.6563C79.0647 14.7345 78.952 15.2817 78.952 15.6725C79.0647 16.845 79.0271 18.0566 79.0271 19.5418ZM76.8862 18.8773C76.9613 18.2911 76.7735 17.783 76.5106 17.314C76.1725 16.7277 75.6843 16.376 74.9706 16.4151C74.2945 16.4151 73.8814 16.8059 73.656 17.3531C73.2053 18.3302 73.2053 19.3463 73.656 20.3625C73.9189 20.9488 74.3696 21.2224 75.0082 21.2224C75.6467 21.2224 76.2101 21.0269 76.473 20.4016C76.7359 19.8935 76.9613 19.4245 76.8862 18.8773Z" fill="#fff"/>
<path d="M56.3782 17.3922C56.3782 15.7897 56.4157 14.2264 56.3782 12.624C56.3406 11.8814 56.5284 11.5687 57.3172 11.6078C58.5943 11.6469 59.8713 11.6078 61.1484 11.6078C63.74 11.6469 65.3176 12.9757 65.6932 15.6334C65.9561 17.3531 65.8059 19.0728 65.0547 20.6361C64.3035 22.1604 63.1391 22.9811 61.4864 23.0202C60.0591 23.0593 58.5943 23.0202 57.167 23.0593C56.566 23.0593 56.3406 22.8639 56.3782 22.1994C56.3782 20.6361 56.3782 19.0337 56.3782 17.3922ZM58.6694 17.314C58.6694 17.8612 58.6694 18.4083 58.6694 18.9555C58.6694 21.066 58.6694 21.0269 60.7352 21.066C61.8245 21.1051 62.5757 20.5579 62.9513 19.6199C63.4771 18.3693 63.5898 17.0404 63.2142 15.7507C62.7635 14.1091 62.2001 13.6792 60.5474 13.6792C60.1342 13.6792 59.7211 13.7183 59.3455 13.6792C58.8196 13.6401 58.6318 13.8356 58.6318 14.4218C58.6694 15.3598 58.6694 16.3369 58.6694 17.314Z" fill="#fff"/>
<path d="M16.6017 11.7251C16.6769 11.686 16.752 11.686 16.7895 11.6469C18.4046 11.6469 20.0197 11.6078 21.6724 11.6469C23.5504 11.686 24.7899 12.8585 24.9401 14.6563C25.1279 17.0013 24.1514 18.4865 22.1607 18.8773C21.3343 19.0337 20.4705 18.9555 19.6441 18.9555C19.0807 18.9555 18.8554 19.19 18.8929 19.7763C18.9305 20.6361 18.8554 21.4569 18.8929 22.3167C18.9305 22.942 18.7051 23.0984 18.1417 23.0984C16.2637 23.0593 16.5642 23.3329 16.5642 21.535C16.5642 18.2911 16.5642 15.0081 16.6017 11.7251ZM18.8929 15.0081C18.8929 15.6334 18.8929 16.0242 18.8929 16.4151C18.8929 16.7668 19.0432 16.9623 19.3812 16.9623C20.1324 16.9232 20.8461 17.0404 21.5973 16.845C22.5738 16.5714 22.649 15.8288 22.6114 14.969C22.5738 14.1482 22.048 13.7965 21.3343 13.7183C21.0339 13.6792 20.6958 13.6792 20.3953 13.6792C18.63 13.7183 18.8929 13.4447 18.8929 15.0081Z" fill="#fff"/>
<path d="M30.3113 14.3828C32.8278 14.4218 34.4805 16.1806 34.4429 18.8383C34.4054 21.6132 32.7527 23.3329 30.2362 23.3329C27.682 23.2938 26.0294 21.496 26.0294 18.7601C26.0669 16.1415 27.7947 14.3828 30.3113 14.3828ZM28.283 18.8383C28.283 20.128 28.8464 21.1442 29.7854 21.3787C30.6493 21.5741 31.4005 21.3005 31.8137 20.5189C32.2644 19.659 32.302 18.6819 32.0015 17.7049C31.7386 16.845 31.2127 16.4151 30.3864 16.376C29.0718 16.2978 28.3206 17.1968 28.283 18.8383Z" fill="#fff"/>
<path d="M50.6314 14.3828C53.148 14.3828 54.8382 16.1415 54.8382 18.7992C54.8382 21.496 53.1856 23.3329 50.6314 23.3329C48.0773 23.3329 46.4998 21.6132 46.4998 18.9164C46.4622 16.1024 48.0398 14.4218 50.6314 14.3828ZM52.547 18.8383C52.547 18.6038 52.5846 18.3693 52.547 18.1739C52.3592 17.3922 52.0963 16.6105 51.1949 16.4151C50.4061 16.2588 49.6549 16.3369 49.129 17.1577C48.6032 18.0175 48.6032 19.7763 49.129 20.597C49.6924 21.4569 50.6314 21.6914 51.4953 21.1833C52.3968 20.6752 52.5095 19.7763 52.547 18.8383Z" fill="#fff"/>
<path d="M96.8683 19.5808C97.0561 20.4798 96.5303 21.6523 97.1688 22.7075C97.3191 22.942 97.0937 23.1374 96.9059 23.0593C96.2298 22.8639 95.2908 23.6455 94.8025 22.5121C94.6523 22.1604 94.3893 22.5121 94.2015 22.6294C93.3377 23.2156 92.4362 23.3719 91.4596 23.1374C90.3328 22.8639 89.7318 22.1604 89.6943 20.9878C89.6567 19.5808 90.2577 18.5647 91.3469 18.2911C92.0606 18.0957 92.7742 17.8612 93.563 17.8612C94.0889 17.8612 94.6147 17.7439 94.6523 17.0795C94.6898 16.3369 94.0513 16.2587 93.5255 16.1806C92.9996 16.1024 92.4738 16.2587 92.2108 16.7668C91.7601 17.6657 90.9713 17.3531 90.3328 17.2749C89.8445 17.2358 89.9948 16.7277 90.1074 16.4151C90.4455 15.2816 91.2718 14.6563 92.3611 14.5C93.3001 14.3436 94.2767 14.3046 95.2157 14.6954C96.38 15.2035 96.8683 15.7897 96.9059 17.0795C96.8683 17.8612 96.8683 18.6037 96.8683 19.5808ZM94.6898 19.8544C94.8025 19.2682 94.5396 19.0337 93.9011 19.2682C93.4879 19.4245 93.0372 19.4636 92.6616 19.5808C92.0982 19.7763 91.7977 20.2062 91.8728 20.8315C91.9479 21.4568 92.3986 21.6914 92.9245 21.6914C93.9011 21.6914 94.6147 20.9488 94.6898 19.8544Z" fill="#fff"/>
<path d="M87.6285 23.1766C85.7504 23.1375 85.3748 22.7466 85.3748 20.8315C85.3748 19.6199 85.3748 18.4474 85.3748 17.2358C85.3748 16.7278 85.3748 16.2588 84.6988 16.1806C84.3231 16.1415 84.2856 15.7507 84.2856 15.438C84.2856 15.1253 84.2856 14.7345 84.5861 14.6954C85.45 14.5782 85.4124 13.9528 85.3373 13.3275C85.2246 12.2332 85.9007 12.3504 86.5768 12.3113C87.2904 12.2722 87.6285 12.4677 87.5533 13.2884C87.4782 13.9528 87.4031 14.6954 88.4548 14.6563C88.9055 14.6173 88.9055 15.0863 88.9055 15.438C88.9055 15.8288 88.8304 16.2197 88.3797 16.1806C87.5533 16.1415 87.5158 16.6496 87.5158 17.314C87.5533 18.3693 87.5158 19.4636 87.5158 20.5189C87.5158 20.9097 87.5533 21.4178 88.0416 21.3787C88.9806 21.3396 88.9431 21.9259 88.868 22.5903C88.7928 23.3329 88.1919 23.0984 87.7787 23.1375C87.7411 23.1766 87.666 23.1766 87.6285 23.1766Z" fill="#fff"/>
<path d="M42.0677 19.19C42.0677 18.6038 42.0677 18.0175 42.0677 17.4312C42.0677 16.8059 42.2555 16.1024 41.2413 16.1024C40.9033 16.1024 40.9784 15.6725 40.9784 15.3598C40.9784 15.0471 40.9784 14.6563 41.3165 14.6954C42.2555 14.7345 42.0301 14.0701 42.0677 13.5229C42.1052 13.1711 41.8423 12.624 42.293 12.4676C42.8564 12.2722 43.495 12.2722 44.0208 12.5067C44.4715 12.7021 44.2462 13.2493 44.2462 13.6401C44.2837 14.1873 44.2086 14.6954 44.9974 14.6563C45.5608 14.6172 45.5232 15.0862 45.5232 15.4771C45.5232 15.8679 45.4481 16.2197 44.9598 16.1415C44.3213 16.0633 44.2462 16.4542 44.2462 17.0013C44.2462 18.2129 44.2462 19.3854 44.2462 20.597C44.2462 21.066 44.3213 21.4959 44.9598 21.4569C45.7862 21.4178 45.4857 22.0431 45.5232 22.473C45.5984 22.9811 45.3354 23.1765 44.8847 23.1374C44.5091 23.0984 44.1335 23.1374 43.7579 23.0984C42.556 23.0202 42.0677 22.5121 42.0677 21.3005C42.0677 21.2224 42.0677 21.1833 42.0677 21.1051C42.0677 20.4798 42.0677 19.8153 42.0677 19.19Z" fill="#fff"/>
<path d="M38.0863 15.5943C38.7624 14.9299 39.2882 14.3827 40.1145 14.4609C40.3023 14.5 40.5277 14.3827 40.6404 14.6954C40.9409 15.5943 40.5277 16.4151 39.6262 16.5714C38.6872 16.7277 38.1238 17.4703 38.0863 18.5647C38.0487 19.7763 38.0111 21.0269 38.0863 22.2385C38.1614 23.2547 37.4853 23.0202 36.9595 23.0202C36.4336 23.0202 35.8326 23.2156 35.8326 22.2385C35.8702 20.0889 35.8326 17.9002 35.8702 15.7506C35.8702 15.2426 35.72 14.5781 36.5087 14.6172C37.1097 14.6563 38.0487 14.1873 38.0863 15.5943Z" fill="#fff"/>
<path d="M98.7464 17.3922C98.7464 15.7507 98.7839 14.0701 98.7464 12.4286C98.7464 11.8423 98.9342 11.6469 99.4976 11.6469C101 11.6078 101 11.5687 101 13.1711C101 16.1415 100.962 19.1118 101.038 22.1213C101.075 23.0984 100.624 23.1375 99.9107 23.0984C99.1971 23.0984 98.6712 23.1375 98.7088 22.0431C98.8215 20.5189 98.7464 18.9555 98.7464 17.3922Z" fill="#fff"/>
<path d="M83.1212 18.9555C83.1212 20.089 83.1212 21.2224 83.1212 22.3558C83.1588 23.4501 82.37 23.0202 81.8442 23.0984C81.3183 23.1766 80.8676 23.1766 80.8676 22.3558C80.9052 20.0499 80.9052 17.7439 80.8676 15.438C80.8676 14.4218 81.5437 14.6563 82.1071 14.6173C82.7081 14.5782 83.1588 14.6563 83.1212 15.4771C83.0837 16.6105 83.1212 17.783 83.1212 18.9555Z" fill="#fff"/>
<path d="M67.3458 18.7601C67.3458 17.6657 67.3834 16.5714 67.3458 15.4771C67.3083 14.3827 68.0595 14.6954 68.6604 14.6172C69.2614 14.5391 69.5619 14.6954 69.5619 15.438C69.5243 17.7439 69.5243 20.0498 69.5619 22.3167C69.5995 23.3329 68.9609 23.0593 68.4351 23.0593C67.8717 23.0984 67.3083 23.1765 67.3458 22.2385C67.3834 21.1051 67.3458 19.9326 67.3458 18.7601Z" fill="#fff"/>
<path d="M81.9945 11.686C82.7081 11.6078 83.1964 11.6469 83.1964 12.663C83.1964 13.7183 82.7081 13.6792 81.9945 13.7183C81.2057 13.7574 80.9428 13.5229 80.9052 12.663C80.8676 11.6078 81.3184 11.5687 81.9945 11.686Z" fill="#fff"/>
<path d="M68.4351 13.6401C67.5712 13.8355 67.3459 13.4838 67.3083 12.5849C67.2707 11.3733 68.0219 11.6859 68.6605 11.5687C69.5995 11.4514 69.4868 12.0377 69.5619 12.7021C69.637 13.6401 69.1863 13.7965 68.4351 13.6401Z" fill="#fff"/>
</svg>
